<svg id="Capa_1" enable-background="new 0 0 512 512" height="512" viewBox="0 0 512 512" width="512" xmlns="http://www.w3.org/2000/svg"><g><path d="m512 181c0-16.613-5.799-32.396-16.437-45.008.965-5.255 1.437-10.199 1.437-14.992 0-35.321-21.8-70-55-70-33.262 0-55 34.754-55 70 0 4.793.472 9.737 1.437 14.992-10.638 12.612-16.437 28.395-16.437 45.008 0 35.203 26.123 64.406 60 69.274v40.726h-76v-50c0-5.522-4.477-10-10-10h-110v-70h20c3.214 0 6.233-1.545 8.112-4.153 1.879-2.607 2.391-5.96 1.375-9.009l-30-90c-1.006-3.019-3.389-5.378-6.417-6.354l-93-30c-1.996-.645-4.144-.645-6.14 0l-93 30c-3.028.977-5.411 3.336-6.417 6.354l-30 90c-1.017 3.049-.505 6.401 1.375 9.009 1.879 2.608 4.898 4.153 8.112 4.153h20v130h-20c-5.523 0-10 4.478-10 10v180c0 5.522 4.477 10 10 10h58c5.523 0 10-4.478 10-10s-4.477-10-10-10h-48v-40h146c28.881 0 55.183 15.608 69.291 40h-77.291c-5.523 0-10 4.478-10 10s4.477 10 10 10h344c5.523 0 10-4.478 10-10v-180c0-5.522-4.477-10-10-10h-50v-40.726c33.877-4.868 60-34.071 60-69.274zm-176 110h-40v-40h40zm-60-40v40h-40v-40zm-123 40h-40v-70h40zm-113-150h-16.126l24.012-72.037 85.114-27.455 85.114 27.455 24.012 72.037h-16.126c-5.523 0-10 4.478-10 10v140h-43v-80c0-5.522-4.477-10-10-10h-60c-5.523 0-10 4.478-10 10v80h-43v-140c0-5.522-4.477-10-10-10zm126 170c97.522 0 177.578 69.654 195.978 160h-41.045c-18.079-70.006-81.957-120-154.933-120h-146v-40zm326 100h-130.081c-7.316-14.286-16.124-27.666-26.33-40h156.411zm-326 0h-146v-40h146c62.106 0 116.687 41.376 134.185 100h-42.519c-15.79-36.163-51.761-60-91.666-60zm216.349 60c-2.522-13.679-6.342-27.062-11.41-40h121.061v40zm109.651-120h-175.16c-17.659-16.668-37.611-30.104-59.114-40h234.274zm-100-170c0-13.168 5.113-25.613 14.396-35.044 2.409-2.448 3.394-5.961 2.608-9.304-1.367-5.818-2.004-10.792-2.004-15.652 0-27.103 16.028-50 35-50s35 22.897 35 50c0 4.86-.637 9.834-2.005 15.652-.786 3.343.199 6.855 2.608 9.304 9.284 9.431 14.397 21.876 14.397 35.044 0 27.57-22.43 50-50 50s-50-22.43-50-50z"/><path d="m103 131h60c5.523 0 10-4.478 10-10s-4.477-10-10-10h-60c-5.523 0-10 4.478-10 10s4.477 10 10 10z"/><circle cx="113" cy="481" r="10"/></g></svg>