<svg id="Capa_1" enable-background="new 0 0 512 512" height="512" viewBox="0 0 512 512" width="512" xmlns="http://www.w3.org/2000/svg"><g><path d="m216 70c0 38.598 31.402 70 70 70s70-31.402 70-70-31.402-70-70-70-70 31.402-70 70zm70-50c27.57 0 50 22.43 50 50s-22.43 50-50 50-50-22.43-50-50 22.43-50 50-50z"/><path d="m502 96c-79.026 0-120.158 39.547-159.935 77.792-3.972 3.819-8.051 7.738-12.136 11.585-45.898-3.053-79.483-14.839-103.761-24.867-5.105-2.112-10.952.319-13.06 5.425-2.108 5.104.32 10.951 5.425 13.06 22.245 9.189 51.89 19.775 91.088 24.559-27.725 23.106-61.292 42.446-113.621 42.446h-176v-129.863c51.519 1.423 87.72 13.697 116.536 25.72 5.101 2.13 10.953-.28 13.079-5.378 2.127-5.097-.281-10.953-5.378-13.079-32.473-13.549-73.817-27.4-134.237-27.4-5.522 0-10 4.478-10 10v396c0 5.522 4.478 10 10 10h492c5.522 0 10-4.478 10-10 0-15.641 0-378.986 0-396 0-5.522-4.478-10-10-10zm-10 255.347-62.317-85.347h62.317zm-136.073-163.138c36.765-35.348 71.593-68.83 136.073-71.97v129.761h-209.704c28.763-14.803 50.377-35.431 73.631-57.791zm-31.072 303.791-27.561-226h43.77l84.52 226zm-238.439 0 84.52-226h43.77l-27.561 226zm148.439-226h42.29l27.561 226h-97.412zm-214.855 0h62.317l-62.317 85.347zm0 119.262 87.08-119.262h42.504l-84.52 226h-45.064zm426.936 106.738-84.52-226h42.504l87.08 119.262v106.738z"/><circle cx="181" cy="152" r="10"/></g></svg>